<svg xmlns="http://www.w3.org/2000/svg" version="1.1" xmlns:xlink="http://www.w3.org/1999/xlink" xmlns:svgjs="http://svgjs.dev/svgjs" width="100%" height="100%" viewBox="0 0 1000 600"><rect width="1000" height="600" x="0" y="0" fill="#295f2d"/><g><rect width="333.3333333333333" height="333.3333333333333" rx="13.333333333333334" ry="13.333333333333334" y="347.0300329990263" fill="#FF" transform="matrix(0.3848429027830033,0,0,0.3848429027830033,0,102.3074497194529)" x="324.807861328125"/><path d="M560.5482920951955 588.6966991513499L543.3185619707137 588.6966991513499L525.1879309246906 540.3577340798873L457.47959604008514 540.3577340798873L439.34896499406193 588.6966991513499L422.40076640756195 588.6966991513499L479.57982177165076 438.6966957146856L503.28477726971215 438.6966957146856L560.5482920951955 588.6966991513499ZM491.31968690548877 450.4647140023218L462.85684841553615 526.1685445656083L519.8106785492396 526.1685445656083L491.31968690548877 450.4647140023218Z " fill="#295f2d" transform="matrix(0.3848429027830033,0,0,0.3848429027830033,0,102.3074497194529)"/><path d="M840.9138623955095 556.5972565640348L828.511809612306 556.5972565640348L815.4612834809614 521.8026084778253L766.7244584097127 521.8026084778253L753.673932278368 556.5972565640348L741.4745274164588 556.5972565640348L782.6323202313054 448.62644409849946L799.6952752042746 448.62644409849946L840.9138623955095 556.5972565640348ZM791.0827385492723 457.0971272085959L770.5950337064314 511.58915324459895L811.5907081842427 511.58915324459895L791.0827385492723 457.0971272085959ZM925.1748680696265 556.5972565640348L911.6785165114346 556.5972565640348L882.2135087552618 521.0730759611663L867.1770329952342 521.0730759611663L867.1770329952342 556.5972565640348L855.220805638878 556.5972565640348L855.220805638878 438.69669595508503L867.1770329952342 438.69669595508503L867.1770329952342 511.0825334413635L882.071655210356 511.0825334413635L909.4291245850692 477.44297850653084L922.7633578062258 477.44297850653084L891.9811385616409 515.8852891760355L925.1748680696265 556.5972565640348ZM1005.7882111604484 556.5972565640348L992.2918596022565 556.5972565640348L962.8268518460837 521.0730759611663L947.7903760860562 521.0730759611663L947.7903760860562 556.5972565640348L935.8341487297 556.5972565640348L935.8341487297 438.69669595508503L947.7903760860562 438.69669595508503L947.7903760860562 511.0825334413635L962.6849983011779 511.0825334413635L990.0424676758912 477.44297850653084L1003.3767008970477 477.44297850653084L972.594481652463 515.8852891760355L1005.7882111604484 556.5972565640348ZM1040.6639184151754 476.20682618663636Q1051.5258469965434 476.20682618663636 1058.5374650733215 478.94257312410775Q1065.5490831501 481.67832006157903 1069.0751569806184 488.0211999980867Q1072.6214956032668 494.36407993459426 1072.6214956032668 505.16521413957366L1072.6214956032668 505.16521413957366L1072.6214956032668 556.5972565640348L1062.6309530834637 556.5972565640348L1061.7393022297697 547.6199536507029L1060.9489753367225 547.6199536507029Q1056.8554873265798 552.4429741775042 1050.2896946766487 555.1787211149756Q1043.7239020267175 557.9144680524469 1036.3677824837391 557.9144680524469L1036.3677824837391 557.9144680524469Q1028.4847783453956 557.9144680524469 1022.8309013412884 555.2800450756226Q1017.177024337181 552.6658868909278 1014.1778351020272 547.7618071956088Q1011.1989106590028 542.8779922924193 1011.1989106590028 536.2514052660998L1011.1989106590028 536.2514052660998Q1011.1989106590028 525.8758316958381 1018.3321174885577 520.1611603153424Q1025.485589110242 514.4262241427174 1041.170538218411 512.9063647330111L1041.170538218411 512.9063647330111L1060.8679161682048 510.77856155942226L1060.8679161682048 504.6585943363383Q1060.8679161682048 497.42406354613627 1058.4969354890627 493.3508403281234Q1056.125954809921 489.25735231798114 1051.424523035896 487.5753745712395Q1046.7230912618713 485.9136616166273 1039.2048533818574 485.9136616166273L1039.2048533818574 485.9136616166273Q1033.9562722203386 485.9136616166273 1027.9781585421604 486.825577262451Q1021.9797800718528 487.7374929082748 1016.3664326520043 489.62211857631064L1016.3664326520043 489.62211857631064L1016.3664326520043 479.9152831463197Q1021.5542194371351 478.0914518546722 1028.0389529185486 477.159271416719Q1034.5439511920918 476.20682618663636 1040.6639184151754 476.20682618663636L1040.6639184151754 476.20682618663636ZM1039.285912550375 548.7142524256915Q1045.3248206049416 548.7142524256915 1050.9179032326606 546.3432717465496Q1056.4907210682504 543.9722910674077 1060.8679161682048 539.2303297091241L1060.8679161682048 539.2303297091241L1060.8679161682048 518.7426248662832L1041.9811299035878 520.7691040792249Q1032.0513817601732 521.9444620227312 1027.6741866602192 525.4097414768615Q1023.2969915602649 528.8750209309919 1023.2969915602649 535.2179008674996L1023.2969915602649 535.2179008674996Q1023.2969915602649 541.7228991410425 1027.3094204018896 545.2084433873022Q1031.3218492435142 548.7142524256915 1039.285912550375 548.7142524256915L1039.285912550375 548.7142524256915ZM1124.4183042860573 557.9752624288351Q1114.6304096875488 557.9752624288351 1107.1527013917937 553.8209800423047Q1099.6749930960386 549.666697655774 1095.3788571646023 540.8717778716069Q1091.0827212331658 532.0768580874399 1091.0827212331658 518.6615656977656L1091.0827212331658 518.6615656977656Q1091.0827212331658 497.5861818831716 1101.7217371011097 486.8863716388393Q1112.3810177611833 476.20682618663636 1133.2334888623536 476.20682618663636L1133.2334888623536 476.20682618663636Q1140.386960484038 476.20682618663636 1147.9862575325697 477.5240376750485L1147.9862575325697 477.5240376750485L1147.9862575325697 438.69669595508503L1159.9424848889257 438.69669595508503L1159.9424848889257 556.5972565640348L1149.810088824217 556.5972565640348L1148.9184379705225 547.5591592743147L1148.1889054538638 547.5591592743147Q1144.034623067333 552.4429741775042 1137.914655844249 555.2192506992344Q1131.7744238290356 557.9752624288351 1124.4183042860573 557.9752624288351L1124.4183042860573 557.9752624288351ZM1127.1945808077874 547.7010128192205Q1133.2334888623536 547.7010128192205 1138.684717945167 545.2489729715611Q1144.1156822358507 542.817197916031 1147.9862575325697 537.7104702994178L1147.9862575325697 537.7104702994178L1147.9862575325697 487.6564337397572Q1144.906009128898 486.84584205458043 1140.974639455791 486.3797518356039Q1137.043269782684 485.9136616166273 1133.0916353174478 485.9136616166273L1133.0916353174478 485.9136616166273Q1117.913306012514 485.9136616166273 1110.5977160537946 493.53322345728816Q1103.2618613029454 501.1527852979491 1103.2618613029454 517.567266922777L1103.2618613029454 517.567266922777Q1103.2618613029454 533.6980414577932 1109.503417278806 540.6893947424421Q1115.7247084625371 547.7010128192205 1127.1945808077874 547.7010128192205L1127.1945808077874 547.7010128192205ZM1195.7706373737356 556.5972565640348L1183.7333508488614 556.5972565640348L1183.7333508488614 477.44297850653084L1195.7706373737356 477.44297850653084L1195.7706373737356 556.5972565640348ZM1189.7722589034279 460.3800235335615Q1185.7598300618033 460.3800235335615 1183.611762096085 458.3940739048786Q1181.463694130367 456.42838906832515 1181.463694130367 452.92258002993594L1181.463694130367 452.92258002993594Q1181.463694130367 449.3559766151585 1183.611762096085 447.39029177860505Q1185.7598300618033 445.4246069420515 1189.7722589034279 445.4246069420515L1189.7722589034279 445.4246069420515Q1193.7846877450525 445.4246069420515 1195.9530205029 447.39029177860505Q1198.1010884686184 449.3559766151585 1198.1010884686184 452.92258002993594L1198.1010884686184 452.92258002993594Q1198.1010884686184 456.42838906832515 1195.9530205029 458.3940739048786Q1193.7846877450525 460.3800235335615 1189.7722589034279 460.3800235335615L1189.7722589034279 460.3800235335615ZM1244.710110366278 476.20682618663636Q1255.5923037397752 476.20682618663636 1262.5836570244242 478.94257312410775Q1269.5952751012026 481.67832006157903 1273.1213489317213 488.0211999980867Q1276.6676875543692 494.36407993459426 1276.6676875543692 505.16521413957366L1276.6676875543692 505.16521413957366L1276.6676875543692 556.5972565640348L1266.6771450345664 556.5972565640348L1265.8057589730015 547.6199536507029L1264.9951672878249 547.6199536507029Q1260.9016792776827 552.4429741775042 1254.3358866277513 555.1787211149756Q1247.7700939778201 557.9144680524469 1240.4139744348417 557.9144680524469L1240.4139744348417 557.9144680524469Q1232.5309702964983 557.9144680524469 1226.877093292391 555.2800450756226Q1221.2232162882838 552.6658868909278 1218.2240270531297 547.7618071956088Q1215.2451026101053 542.8779922924193 1215.2451026101053 536.2514052660998L1215.2451026101053 536.2514052660998Q1215.2451026101053 525.8758316958381 1222.3985742317896 520.1611603153424Q1229.5317810613446 514.4262241427174 1245.2167301695135 512.9063647330111L1245.2167301695135 512.9063647330111L1264.9141081193072 510.77856155942226L1264.9141081193072 504.6585943363383Q1264.9141081193072 497.42406354613627 1262.5431274401653 493.3508403281234Q1260.1721467610237 489.25735231798114 1255.4707149869987 487.5753745712395Q1250.7692832129737 485.9136616166273 1243.25104533296 485.9136616166273L1243.25104533296 485.9136616166273Q1238.002464171441 485.9136616166273 1232.024350493263 486.825577262451Q1226.0462368150847 487.7374929082748 1220.412624603107 489.62211857631064L1220.412624603107 489.62211857631064L1220.412624603107 479.9152831463197Q1225.6004113882377 478.0914518546722 1232.0851448696512 477.159271416719Q1238.5901431431942 476.20682618663636 1244.710110366278 476.20682618663636L1244.710110366278 476.20682618663636ZM1243.3321045014777 548.7142524256915Q1249.3912773481734 548.7142524256915 1254.9640951837634 546.3432717465496Q1260.536913019353 543.9722910674077 1264.9141081193072 539.2303297091241L1264.9141081193072 539.2303297091241L1264.9141081193072 518.7426248662832L1246.0273218546904 520.7691040792249Q1236.0975737112758 521.9444620227312 1231.7203786113218 525.4097414768615Q1227.3431835113674 528.8750209309919 1227.3431835113674 535.2179008674996L1227.3431835113674 535.2179008674996Q1227.3431835113674 541.7228991410425 1231.3556123529922 545.2084433873022Q1235.3680411946168 548.7142524256915 1243.3321045014777 548.7142524256915L1243.3321045014777 548.7142524256915ZM1299.5061082842226 556.5972565640348L1299.5061082842226 477.44297850653084L1309.5777099725428 477.44297850653084L1310.4490960341077 486.48107579625093L1311.2394229271551 486.48107579625093Q1316.5690632571918 481.53646651667316 1323.4996221654526 478.86151395559006Q1330.4301810737134 476.20682618663636 1338.090272498633 476.20682618663636L1338.090272498633 476.20682618663636Q1350.9989450850721 476.20682618663636 1358.2740054595329 483.3197682240619Q1365.528801041864 490.43271026148733 1365.528801041864 505.7528931113268L1365.528801041864 505.7528931113268L1365.528801041864 556.5972565640348L1353.5523088933783 556.5972565640348L1353.5523088933783 506.17845374604457Q1353.5523088933783 495.90420413643 1348.8508771193538 491.38515549156995Q1344.1494453453288 486.84584205458043 1335.2532016005148 486.84584205458043L1335.2532016005148 486.84584205458043Q1328.910321664007 486.84584205458043 1322.4863825589819 489.399205862887Q1316.0624434539563 491.9525696711936 1311.4623356405787 497.2214156248421L1311.4623356405787 497.2214156248421L1311.4623356405787 556.5972565640348L1299.5061082842226 556.5972565640348ZM1465.697668537574 547.478100105797L1502.964621263572 448.62644409849946L1515.0019077884458 448.62644409849946L1474.1480868555404 556.5972565640348L1456.497452910818 556.5972565640348L1415.5625728093955 448.62644409849946L1428.4915101879637 448.62644409849946L1465.697668537574 547.478100105797ZM1540.0289260682762 556.5972565640348L1527.9916395434025 556.5972565640348L1527.9916395434025 477.44297850653084L1540.0289260682762 477.44297850653084L1540.0289260682762 556.5972565640348ZM1534.0508123900981 460.3800235335615Q1530.0383835484736 460.3800235335615 1527.8903155827552 458.3940739048786Q1525.7219828249076 456.42838906832515 1525.7219828249076 452.92258002993594L1525.7219828249076 452.92258002993594Q1525.7219828249076 449.3559766151585 1527.8903155827552 447.39029177860505Q1530.0383835484736 445.4246069420515 1534.0508123900981 445.4246069420515L1534.0508123900981 445.4246069420515Q1538.0632412317227 445.4246069420515 1540.211309197441 447.39029177860505Q1542.359377163159 449.3559766151585 1542.359377163159 452.92258002993594L1542.359377163159 452.92258002993594Q1542.359377163159 456.42838906832515 1540.211309197441 458.3940739048786Q1538.0632412317227 460.3800235335615 1534.0508123900981 460.3800235335615L1534.0508123900981 460.3800235335615ZM1592.7781799811496 557.9752624288351Q1582.990285382641 557.9752624288351 1575.5125770868858 553.8209800423047Q1568.034868791131 549.666697655774 1563.7387328596947 540.8717778716069Q1559.442596928258 532.0768580874399 1559.442596928258 518.6615656977656L1559.442596928258 518.6615656977656Q1559.442596928258 497.5861818831716 1570.081612796202 486.8863716388393Q1580.7408934562754 476.20682618663636 1601.593364557446 476.20682618663636L1601.593364557446 476.20682618663636Q1608.7468361791302 476.20682618663636 1616.346133227662 477.5240376750485L1616.346133227662 477.5240376750485L1616.346133227662 438.69669595508503L1628.302360584018 438.69669595508503L1628.302360584018 556.5972565640348L1618.1699645193094 556.5972565640348L1617.2783136656149 547.5591592743147L1616.548781148956 547.5591592743147Q1612.3944987624254 552.4429741775042 1606.2745315393413 555.2192506992344Q1600.134299524128 557.9752624288351 1592.7781799811496 557.9752624288351L1592.7781799811496 557.9752624288351ZM1595.55445650288 547.7010128192205Q1601.593364557446 547.7010128192205 1607.0445936402593 545.2489729715611Q1612.475557930943 542.817197916031 1616.346133227662 537.7104702994178L1616.346133227662 537.7104702994178L1616.346133227662 487.6564337397572Q1613.2658848239903 486.84584205458043 1609.3345151508834 486.3797518356039Q1605.4031454777764 485.9136616166273 1601.4515110125403 485.9136616166273L1601.4515110125403 485.9136616166273Q1586.2731817076065 485.9136616166273 1578.957591748887 493.53322345728816Q1571.6217369980377 501.1527852979491 1571.6217369980377 517.567266922777L1571.6217369980377 517.567266922777Q1571.6217369980377 533.6980414577932 1577.8632929738983 540.6893947424421Q1584.0845841576297 547.7010128192205 1595.55445650288 547.7010128192205L1595.55445650288 547.7010128192205ZM1714.164284836359 517.2835598329652L1714.164284836359 520.9312224162603L1659.814112345262 520.9312224162603Q1660.3207321484974 535.3597544124054 1667.4134093937932 541.8242231016895Q1674.4858218469599 548.2886917909736 1688.853559466717 548.2886917909736L1688.853559466717 548.2886917909736Q1698.6211892730958 548.2886917909736 1710.1518559947344 544.8436771289728L1710.1518559947344 544.8436771289728L1710.1518559947344 554.5505125589636Q1698.6211892730958 557.9752624288351 1687.4755536019165 557.9752624288351L1687.4755536019165 557.9752624288351Q1667.6160573150873 557.9752624288351 1657.6660443795436 548.0252494932912Q1647.7160314439998 538.0752365577473 1647.7160314439998 516.979587951024L1647.7160314439998 516.979587951024Q1647.7160314439998 503.625089937738 1651.748725077754 494.5059334795002Q1655.8016835036374 485.38677702126245 1663.4009805521687 480.8069340000141Q1670.9800128085708 476.20682618663636 1681.6392934686442 476.20682618663636L1681.6392934686442 476.20682618663636Q1697.3850369532015 476.20682618663636 1705.77466089478 486.60266454902745Q1714.164284836359 496.99850291141854 1714.164284836359 517.2835598329652L1714.164284836359 517.2835598329652ZM1681.5582343001265 484.81936284163874Q1671.121866353477 484.81936284163874 1665.609842894275 491.5270090364759Q1660.1180842272033 498.23465523131296 1659.814112345262 512.8253055644934L1659.814112345262 512.8253055644934L1702.795736451756 512.8253055644934Q1702.4917645698147 498.23465523131296 1697.1621242397778 491.5270090364759Q1691.8527487018705 484.81936284163874 1681.5582343001265 484.81936284163874L1681.5582343001265 484.81936284163874ZM1763.7724959691727 557.9752624288351Q1746.9324537096268 557.9752624288351 1737.4485309930596 547.8428663641265Q1727.964608276492 537.7104702994178 1727.964608276492 517.0606471195416L1727.964608276492 517.0606471195416Q1727.964608276492 496.55267748457135 1737.4485309930596 486.3797518356039Q1746.9324537096268 476.20682618663636 1763.7724959691727 476.20682618663636L1763.7724959691727 476.20682618663636Q1780.7746565657535 476.20682618663636 1790.1572553216738 486.2986926670862Q1799.519589285465 496.4108239396654 1799.519589285465 517.0606471195416L1799.519589285465 517.0606471195416Q1799.519589285465 530.7799113911572 1795.1423941855105 539.9193326415243Q1790.7651990855566 549.0790186840209 1782.740341402307 553.5372729524927Q1774.7154837190578 557.9752624288351 1763.7724959691727 557.9752624288351L1763.7724959691727 557.9752624288351ZM1763.7724959691727 548.2886917909736Q1775.1613091459053 548.2886917909736 1781.2407467847302 540.9933666243835Q1787.340449215685 533.6980414577932 1787.340449215685 517.2025006644476L1787.340449215685 517.2025006644476Q1787.340449215685 500.50431194980774 1781.281276368989 493.2089867832175Q1775.2221035222933 485.9136616166273 1763.7724959691727 485.9136616166273L1763.7724959691727 485.9136616166273Q1752.3228884160517 485.9136616166273 1746.2231859850972 493.16845719895866Q1740.1437483462719 500.42325278129005 1740.1437483462719 516.9187935746357L1740.1437483462719 516.9187935746357Q1740.1437483462719 533.6169822892755 1746.2231859850972 540.9528370401247Q1752.3228884160517 548.2886917909736 1763.7724959691727 548.2886917909736L1763.7724959691727 548.2886917909736ZM1858.388810421422 556.5972565640348L1858.388810421422 450.450275390147Q1866.271814559765 448.9101511883113 1873.3442270129317 448.18061867165227Q1880.436904258228 447.4510861549933 1888.1577900595357 447.4510861549933L1888.1577900595357 447.4510861549933Q1910.5503853625419 447.4510861549933 1921.8986689550156 456.42838906832515Q1933.2469525474894 465.405691981657 1933.2469525474894 484.2316838698856L1933.2469525474894 484.2316838698856Q1933.2469525474894 502.53079116274944 1921.7568154101095 511.9133899186696Q1910.2666782727301 521.2959886745898 1886.3339587678884 521.2959886745898L1886.3339587678884 521.2959886745898Q1878.6130729665801 521.2959886745898 1870.588215283331 520.5664561579308L1870.588215283331 520.5664561579308L1870.588215283331 556.5972565640348L1858.388810421422 556.5972565640348ZM1886.475812312794 511.5080940760813Q1898.8170707196095 511.5080940760813 1906.4366325602705 508.5494344251864Q1914.056194400931 505.6110395664209 1917.6430626078381 499.61266109611336Q1921.2096660226152 493.63454741793527 1921.2096660226152 484.37353741479154L1921.2096660226152 484.37353741479154Q1921.2096660226152 470.3705660533642 1913.2658675078837 463.80477340343305Q1905.301804201023 457.2389807535018 1889.029176121101 457.2389807535018L1889.029176121101 457.2389807535018Q1879.5452534045335 457.2389807535018 1870.588215283331 458.7588401632081L1870.588215283331 458.7588401632081L1870.588215283331 510.49485446961046Q1877.721422112886 511.5080940760813 1886.475812312794 511.5080940760813L1886.475812312794 511.5080940760813ZM1963.8873182471684 556.5972565640348L1951.931090890812 556.5972565640348L1951.931090890812 438.69669595508503L1963.8873182471684 438.69669595508503L1963.8873182471684 556.5972565640348ZM2012.9078504082286 476.20682618663636Q2023.7900437817257 476.20682618663636 2030.7813970663747 478.94257312410775Q2037.7930151431528 481.67832006157903 2041.3190889736716 488.0211999980867Q2044.8654275963195 494.36407993459426 2044.8654275963195 505.16521413957366L2044.8654275963195 505.16521413957366L2044.8654275963195 556.5972565640348L2034.8748850765169 556.5972565640348L2034.003499014952 547.6199536507029L2033.1929073297752 547.6199536507029Q2029.099419319633 552.4429741775042 2022.5336266697018 555.1787211149756Q2015.9678340197706 557.9144680524469 2008.6117144767923 557.9144680524469L2008.6117144767923 557.9144680524469Q2000.7287103384488 557.9144680524469 1995.0748333343413 555.2800450756226Q1989.4209563302338 552.6658868909278 1986.4217670950802 547.7618071956088Q1983.4428426520562 542.8779922924193 1983.4428426520562 536.2514052660998L1983.4428426520562 536.2514052660998Q1983.4428426520562 525.8758316958381 1990.59631427374 520.1611603153424Q1997.7295211032952 514.4262241427174 2013.414470211464 512.9063647330111L2013.414470211464 512.9063647330111L2033.111848161258 510.77856155942226L2033.111848161258 504.6585943363383Q2033.111848161258 497.42406354613627 2030.7408674821158 493.3508403281234Q2028.3698868029742 489.25735231798114 2023.6684550289492 487.5753745712395Q2018.9670232549242 485.9136616166273 2011.4487853749106 485.9136616166273L2011.4487853749106 485.9136616166273Q2006.2002042133918 485.9136616166273 2000.2220905352133 486.825577262451Q1994.2439768570352 487.7374929082748 1988.6103646450574 489.62211857631064L1988.6103646450574 489.62211857631064L1988.6103646450574 479.9152831463197Q1993.7981514301882 478.0914518546722 2000.2828849116017 477.159271416719Q2006.7878831851444 476.20682618663636 2012.9078504082286 476.20682618663636L2012.9078504082286 476.20682618663636ZM2011.5298445434282 548.7142524256915Q2017.5890173901244 548.7142524256915 2023.1618352257137 546.3432717465496Q2028.7346530613036 543.9722910674077 2033.111848161258 539.2303297091241L2033.111848161258 539.2303297091241L2033.111848161258 518.7426248662832L2014.2250618966405 520.7691040792249Q2004.2953137532263 521.9444620227312 1999.9181186532724 525.4097414768615Q1995.540923553318 528.8750209309919 1995.540923553318 535.2179008674996L1995.540923553318 535.2179008674996Q1995.540923553318 541.7228991410425 1999.5533523949425 545.2084433873022Q2003.565781236567 548.7142524256915 2011.5298445434282 548.7142524256915L2011.5298445434282 548.7142524256915ZM2097.1080617059574 546.9714803025615L2124.6681790019647 477.44297850653084L2136.6446711504504 477.44297850653084L2091.636567831015 588.6966872970318L2079.660075682529 588.6966872970318L2092.730866606003 556.5972565640348L2089.36691111252 556.5972565640348L2057.3485395480407 477.44297850653084L2070.1153585895736 477.44297850653084L2097.1080617059574 546.9714803025615ZM2211.644666821424 517.2835598329652L2211.644666821424 520.9312224162603L2157.294494330327 520.9312224162603Q2157.801114133562 535.3597544124054 2164.873526586729 541.8242231016895Q2171.9459390398956 548.2886917909736 2186.313676659652 548.2886917909736L2186.313676659652 548.2886917909736Q2196.1015712581607 548.2886917909736 2207.6322379797994 544.8436771289728L2207.6322379797994 544.8436771289728L2207.6322379797994 554.5505125589636Q2196.1015712581607 557.9752624288351 2184.935670794852 557.9752624288351L2184.935670794852 557.9752624288351Q2165.0964393001523 557.9752624288351 2155.126161572479 548.0252494932912Q2145.176148636935 538.0752365577473 2145.176148636935 516.979587951024L2145.176148636935 516.979587951024Q2145.176148636935 503.625089937738 2149.2291070628185 494.5059334795002Q2153.2820654887023 485.38677702126245 2160.8610977451044 480.8069340000141Q2168.440130001506 476.20682618663636 2179.0994106615794 476.20682618663636L2179.0994106615794 476.20682618663636Q2194.8654189382664 476.20682618663636 2203.255042879845 486.60266454902745Q2211.644666821424 496.99850291141854 2211.644666821424 517.2835598329652L2211.644666821424 517.2835598329652ZM2179.0183514930623 484.81936284163874Q2168.602248338542 484.81936284163874 2163.09022487934 491.5270090364759Q2157.5782014201386 498.23465523131296 2157.294494330327 512.8253055644934L2157.294494330327 512.8253055644934L2200.2558536446913 512.8253055644934Q2199.9721465548796 498.23465523131296 2194.6425062248427 491.5270090364759Q2189.3128658948062 484.81936284163874 2179.0183514930623 484.81936284163874L2179.0183514930623 484.81936284163874ZM2229.8019205693818 556.5972565640348L2229.8019205693818 477.44297850653084L2239.7924630891844 477.44297850653084L2240.825967487785 488.0211999980867L2241.5555000044437 488.0211999980867Q2245.7705767673624 482.63076529166165 2252.4579581700705 479.6315760565079Q2259.125074780649 476.63238682135415 2266.3596055708504 476.63238682135415L2266.3596055708504 476.63238682135415Q2270.068062530534 476.63238682135415 2273.6549307374407 477.3011249616249L2273.6549307374407 477.3011249616249L2273.6549307374407 488.38596625641617Q2270.372034412475 487.79828728466305 2265.7719265990977 487.79828728466305L2265.7719265990977 487.79828728466305Q2259.347987494072 487.79828728466305 2252.680870883494 490.57456380639326Q2245.993489480786 493.3508403281234 2241.758147925738 498.68048065816015L2241.758147925738 498.68048065816015L2241.758147925738 556.5972565640348L2229.8019205693818 556.5972565640348Z " fill="#01e222" transform="matrix(0.3848429027830033,0,0,0.3848429027830033,0,102.3074497194529)"/></g></svg>